<mxfile host="app.diagrams.net" agent="Mozilla/5.0 (Windows NT 10.0; Win64; x64) AppleWebKit/537.36 (KHTML, like Gecko) Chrome/134.0.0.0 Safari/537.36 Edg/134.0.0.0" version="26.1.0">
  <diagram name="Page-1" id="x5zpQDoYuSoOzYtlfWMs">
    <mxGraphModel dx="2562" dy="2634" grid="1" gridSize="10" guides="1" tooltips="1" connect="1" arrows="1" fold="1" page="1" pageScale="1" pageWidth="850" pageHeight="1100" math="0" shadow="0">
      <root>
        <mxCell id="0" />
        <mxCell id="1" parent="0" />
        <mxCell id="-zvJJI0u3e5CJdbClVFZ-1" value="User" style="swimlane;fontStyle=1;align=center;verticalAlign=top;childLayout=stackLayout;horizontal=1;startSize=26;horizontalStack=0;resizeParent=1;resizeParentMax=0;resizeLast=0;collapsible=1;marginBottom=0;whiteSpace=wrap;html=1;" parent="1" vertex="1">
          <mxGeometry x="650" y="-10" width="160" height="218" as="geometry" />
        </mxCell>
        <mxCell id="-zvJJI0u3e5CJdbClVFZ-2" value="+ ID : String&lt;br&gt;+ Name : String&lt;div&gt;~ Password : String&lt;/div&gt;" style="text;strokeColor=none;fillColor=none;align=left;verticalAlign=top;spacingLeft=4;spacingRight=4;overflow=hidden;rotatable=0;points=[[0,0.5],[1,0.5]];portConstraint=eastwest;whiteSpace=wrap;html=1;" parent="-zvJJI0u3e5CJdbClVFZ-1" vertex="1">
          <mxGeometry y="26" width="160" height="74" as="geometry" />
        </mxCell>
        <mxCell id="-zvJJI0u3e5CJdbClVFZ-3" value="" style="line;strokeWidth=1;fillColor=none;align=left;verticalAlign=middle;spacingTop=-1;spacingLeft=3;spacingRight=3;rotatable=0;labelPosition=right;points=[];portConstraint=eastwest;strokeColor=inherit;" parent="-zvJJI0u3e5CJdbClVFZ-1" vertex="1">
          <mxGeometry y="100" width="160" height="8" as="geometry" />
        </mxCell>
        <mxCell id="-zvJJI0u3e5CJdbClVFZ-4" value="+ viewProfile : void&lt;div&gt;+ viewTimetable : void&lt;/div&gt;&lt;div&gt;+ viewCourse : void&lt;/div&gt;&lt;div&gt;+ viewNotices : void&lt;/div&gt;&lt;div&gt;+ login : boolean&lt;/div&gt;&lt;div&gt;+&amp;nbsp;&lt;span style=&quot;background-color: transparent; color: light-dark(rgb(0, 0, 0), rgb(255, 255, 255));&quot;&gt;updateProfile : void&lt;/span&gt;&lt;/div&gt;&lt;div&gt;+ updateProfile : void&lt;span style=&quot;background-color: transparent; color: light-dark(rgb(0, 0, 0), rgb(255, 255, 255));&quot;&gt;&lt;/span&gt;&lt;/div&gt;" style="text;strokeColor=none;fillColor=none;align=left;verticalAlign=top;spacingLeft=4;spacingRight=4;overflow=hidden;rotatable=0;points=[[0,0.5],[1,0.5]];portConstraint=eastwest;whiteSpace=wrap;html=1;" parent="-zvJJI0u3e5CJdbClVFZ-1" vertex="1">
          <mxGeometry y="108" width="160" height="110" as="geometry" />
        </mxCell>
        <mxCell id="-zvJJI0u3e5CJdbClVFZ-5" value="Lecturer" style="swimlane;fontStyle=1;align=center;verticalAlign=top;childLayout=stackLayout;horizontal=1;startSize=26;horizontalStack=0;resizeParent=1;resizeParentMax=0;resizeLast=0;collapsible=1;marginBottom=0;whiteSpace=wrap;html=1;" parent="1" vertex="1">
          <mxGeometry x="480" y="280" width="290" height="218" as="geometry">
            <mxRectangle x="520" y="280" width="80" height="30" as="alternateBounds" />
          </mxGeometry>
        </mxCell>
        <mxCell id="-zvJJI0u3e5CJdbClVFZ-6" value="+ TGNO : String&lt;div&gt;+ c_code : String&lt;/div&gt;" style="text;strokeColor=none;fillColor=none;align=left;verticalAlign=top;spacingLeft=4;spacingRight=4;overflow=hidden;rotatable=0;points=[[0,0.5],[1,0.5]];portConstraint=eastwest;whiteSpace=wrap;html=1;" parent="-zvJJI0u3e5CJdbClVFZ-5" vertex="1">
          <mxGeometry y="26" width="290" height="74" as="geometry" />
        </mxCell>
        <mxCell id="-zvJJI0u3e5CJdbClVFZ-7" value="" style="line;strokeWidth=1;fillColor=none;align=left;verticalAlign=middle;spacingTop=-1;spacingLeft=3;spacingRight=3;rotatable=0;labelPosition=right;points=[];portConstraint=eastwest;strokeColor=inherit;" parent="-zvJJI0u3e5CJdbClVFZ-5" vertex="1">
          <mxGeometry y="100" width="290" height="8" as="geometry" />
        </mxCell>
        <mxCell id="-zvJJI0u3e5CJdbClVFZ-8" value="&lt;div&gt;- addMaterials(c_code : String)&lt;/div&gt;&lt;div&gt;- viewUGDetails(TGNO : String)&lt;/div&gt;" style="text;strokeColor=none;fillColor=none;align=left;verticalAlign=top;spacingLeft=4;spacingRight=4;overflow=hidden;rotatable=0;points=[[0,0.5],[1,0.5]];portConstraint=eastwest;whiteSpace=wrap;html=1;" parent="-zvJJI0u3e5CJdbClVFZ-5" vertex="1">
          <mxGeometry y="108" width="290" height="110" as="geometry" />
        </mxCell>
        <mxCell id="-zvJJI0u3e5CJdbClVFZ-13" value="Admin" style="swimlane;fontStyle=1;align=center;verticalAlign=top;childLayout=stackLayout;horizontal=1;startSize=26;horizontalStack=0;resizeParent=1;resizeParentMax=0;resizeLast=0;collapsible=1;marginBottom=0;whiteSpace=wrap;html=1;" parent="1" vertex="1">
          <mxGeometry x="260" y="280" width="180" height="230" as="geometry" />
        </mxCell>
        <mxCell id="-zvJJI0u3e5CJdbClVFZ-14" value="+ ID : String&lt;div&gt;+ c_code : String&lt;/div&gt;" style="text;strokeColor=none;fillColor=none;align=left;verticalAlign=top;spacingLeft=4;spacingRight=4;overflow=hidden;rotatable=0;points=[[0,0.5],[1,0.5]];portConstraint=eastwest;whiteSpace=wrap;html=1;" parent="-zvJJI0u3e5CJdbClVFZ-13" vertex="1">
          <mxGeometry y="26" width="180" height="54" as="geometry" />
        </mxCell>
        <mxCell id="-zvJJI0u3e5CJdbClVFZ-15" value="" style="line;strokeWidth=1;fillColor=none;align=left;verticalAlign=middle;spacingTop=-1;spacingLeft=3;spacingRight=3;rotatable=0;labelPosition=right;points=[];portConstraint=eastwest;strokeColor=inherit;" parent="-zvJJI0u3e5CJdbClVFZ-13" vertex="1">
          <mxGeometry y="80" width="180" height="8" as="geometry" />
        </mxCell>
        <mxCell id="-zvJJI0u3e5CJdbClVFZ-16" value="- createUserProfile : void&lt;div&gt;- createNotices : void&lt;/div&gt;&lt;div&gt;- createTimeTable : void&lt;/div&gt;&lt;div&gt;- editUserProfile : void&lt;/div&gt;&lt;div&gt;- editNotices : void&lt;/div&gt;&lt;div&gt;- editTimeTable : void&lt;/div&gt;&lt;div&gt;- viewUserProfile(ID : String)&lt;/div&gt;&lt;div&gt;- changePassword(ID : String)&lt;/div&gt;" style="text;strokeColor=none;fillColor=none;align=left;verticalAlign=top;spacingLeft=4;spacingRight=4;overflow=hidden;rotatable=0;points=[[0,0.5],[1,0.5]];portConstraint=eastwest;whiteSpace=wrap;html=1;" parent="-zvJJI0u3e5CJdbClVFZ-13" vertex="1">
          <mxGeometry y="88" width="180" height="142" as="geometry" />
        </mxCell>
        <mxCell id="-zvJJI0u3e5CJdbClVFZ-18" value="Undergraduate" style="swimlane;fontStyle=1;align=center;verticalAlign=top;childLayout=stackLayout;horizontal=1;startSize=26;horizontalStack=0;resizeParent=1;resizeParentMax=0;resizeLast=0;collapsible=1;marginBottom=0;whiteSpace=wrap;html=1;" parent="1" vertex="1">
          <mxGeometry x="830" y="280" width="120" height="108" as="geometry">
            <mxRectangle x="520" y="280" width="80" height="30" as="alternateBounds" />
          </mxGeometry>
        </mxCell>
        <mxCell id="-zvJJI0u3e5CJdbClVFZ-19" value="+ TGNO : String&lt;div&gt;+ c_code : String&lt;/div&gt;" style="text;strokeColor=none;fillColor=none;align=left;verticalAlign=top;spacingLeft=4;spacingRight=4;overflow=hidden;rotatable=0;points=[[0,0.5],[1,0.5]];portConstraint=eastwest;whiteSpace=wrap;html=1;" parent="-zvJJI0u3e5CJdbClVFZ-18" vertex="1">
          <mxGeometry y="26" width="120" height="74" as="geometry" />
        </mxCell>
        <mxCell id="-zvJJI0u3e5CJdbClVFZ-20" value="" style="line;strokeWidth=1;fillColor=none;align=left;verticalAlign=middle;spacingTop=-1;spacingLeft=3;spacingRight=3;rotatable=0;labelPosition=right;points=[];portConstraint=eastwest;strokeColor=inherit;" parent="-zvJJI0u3e5CJdbClVFZ-18" vertex="1">
          <mxGeometry y="100" width="120" height="8" as="geometry" />
        </mxCell>
        <mxCell id="-zvJJI0u3e5CJdbClVFZ-22" value="Technical Officer" style="swimlane;fontStyle=1;align=center;verticalAlign=top;childLayout=stackLayout;horizontal=1;startSize=26;horizontalStack=0;resizeParent=1;resizeParentMax=0;resizeLast=0;collapsible=1;marginBottom=0;whiteSpace=wrap;html=1;" parent="1" vertex="1">
          <mxGeometry x="1030" y="280" width="110" height="108" as="geometry">
            <mxRectangle x="520" y="280" width="80" height="30" as="alternateBounds" />
          </mxGeometry>
        </mxCell>
        <mxCell id="-zvJJI0u3e5CJdbClVFZ-23" value="+ TGNO : String&lt;div&gt;+ c_code : String&lt;/div&gt;&lt;div&gt;- weekNo : int&lt;/div&gt;" style="text;strokeColor=none;fillColor=none;align=left;verticalAlign=top;spacingLeft=4;spacingRight=4;overflow=hidden;rotatable=0;points=[[0,0.5],[1,0.5]];portConstraint=eastwest;whiteSpace=wrap;html=1;" parent="-zvJJI0u3e5CJdbClVFZ-22" vertex="1">
          <mxGeometry y="26" width="110" height="74" as="geometry" />
        </mxCell>
        <mxCell id="-zvJJI0u3e5CJdbClVFZ-24" value="" style="line;strokeWidth=1;fillColor=none;align=left;verticalAlign=middle;spacingTop=-1;spacingLeft=3;spacingRight=3;rotatable=0;labelPosition=right;points=[];portConstraint=eastwest;strokeColor=inherit;" parent="-zvJJI0u3e5CJdbClVFZ-22" vertex="1">
          <mxGeometry y="100" width="110" height="8" as="geometry" />
        </mxCell>
        <mxCell id="-zvJJI0u3e5CJdbClVFZ-26" value="Attendance" style="swimlane;fontStyle=1;align=center;verticalAlign=top;childLayout=stackLayout;horizontal=1;startSize=26;horizontalStack=0;resizeParent=1;resizeParentMax=0;resizeLast=0;collapsible=1;marginBottom=0;whiteSpace=wrap;html=1;" parent="1" vertex="1">
          <mxGeometry x="850" y="590" width="360" height="250" as="geometry" />
        </mxCell>
        <mxCell id="-zvJJI0u3e5CJdbClVFZ-27" value="+ TGNO : String&lt;div&gt;+ c_code : String&lt;br&gt;- weekNo : int&lt;/div&gt;" style="text;strokeColor=none;fillColor=none;align=left;verticalAlign=top;spacingLeft=4;spacingRight=4;overflow=hidden;rotatable=0;points=[[0,0.5],[1,0.5]];portConstraint=eastwest;whiteSpace=wrap;html=1;" parent="-zvJJI0u3e5CJdbClVFZ-26" vertex="1">
          <mxGeometry y="26" width="360" height="74" as="geometry" />
        </mxCell>
        <mxCell id="-zvJJI0u3e5CJdbClVFZ-28" value="" style="line;strokeWidth=1;fillColor=none;align=left;verticalAlign=middle;spacingTop=-1;spacingLeft=3;spacingRight=3;rotatable=0;labelPosition=right;points=[];portConstraint=eastwest;strokeColor=inherit;" parent="-zvJJI0u3e5CJdbClVFZ-26" vertex="1">
          <mxGeometry y="100" width="360" height="8" as="geometry" />
        </mxCell>
        <mxCell id="-zvJJI0u3e5CJdbClVFZ-29" value="+ viewCourseAttendance(c_code : String)&lt;div&gt;+ viewUGAttendance(TGNO : String, c_code : String)&lt;/div&gt;&lt;div&gt;+ viewAttendance(TGNO : String)&lt;/div&gt;&lt;div&gt;+ viewAttendance(TGNO : String, c_code : String)&lt;/div&gt;&lt;div&gt;+ viewCourseAttendance(c_code : String)&lt;/div&gt;&lt;div&gt;+ viewCourseAttendanceEligibility(TGNO : String,c_code : String)&lt;/div&gt;&lt;div&gt;+ viewUGAttendanceEligibility(TGNO : String, c_code : String)&lt;div&gt;+ addAttendance(TGNO :String, c_code : String, weekNO : int)&lt;/div&gt;&lt;div&gt;+ editAttendance(TGNO :String, c_code : String, weekNO : int)&lt;/div&gt;&lt;/div&gt;" style="text;strokeColor=none;fillColor=none;align=left;verticalAlign=top;spacingLeft=4;spacingRight=4;overflow=hidden;rotatable=0;points=[[0,0.5],[1,0.5]];portConstraint=eastwest;whiteSpace=wrap;html=1;" parent="-zvJJI0u3e5CJdbClVFZ-26" vertex="1">
          <mxGeometry y="108" width="360" height="142" as="geometry" />
        </mxCell>
        <mxCell id="-zvJJI0u3e5CJdbClVFZ-30" value="Marks" style="swimlane;fontStyle=1;align=center;verticalAlign=top;childLayout=stackLayout;horizontal=1;startSize=26;horizontalStack=0;resizeParent=1;resizeParentMax=0;resizeLast=0;collapsible=1;marginBottom=0;whiteSpace=wrap;html=1;" parent="1" vertex="1">
          <mxGeometry x="420" y="620" width="360" height="218" as="geometry" />
        </mxCell>
        <mxCell id="-zvJJI0u3e5CJdbClVFZ-31" value="+ TGNO : String&lt;div&gt;+ c_code : String&lt;/div&gt;" style="text;strokeColor=none;fillColor=none;align=left;verticalAlign=top;spacingLeft=4;spacingRight=4;overflow=hidden;rotatable=0;points=[[0,0.5],[1,0.5]];portConstraint=eastwest;whiteSpace=wrap;html=1;" parent="-zvJJI0u3e5CJdbClVFZ-30" vertex="1">
          <mxGeometry y="26" width="360" height="74" as="geometry" />
        </mxCell>
        <mxCell id="-zvJJI0u3e5CJdbClVFZ-32" value="" style="line;strokeWidth=1;fillColor=none;align=left;verticalAlign=middle;spacingTop=-1;spacingLeft=3;spacingRight=3;rotatable=0;labelPosition=right;points=[];portConstraint=eastwest;strokeColor=inherit;" parent="-zvJJI0u3e5CJdbClVFZ-30" vertex="1">
          <mxGeometry y="100" width="360" height="8" as="geometry" />
        </mxCell>
        <mxCell id="-zvJJI0u3e5CJdbClVFZ-33" value="+ viewFinalMarks(TGNO : String, c_code : String)&lt;br&gt;+ viewGrades(TGNO : String, c_code : String)&lt;div&gt;+ viewCGPA(&lt;span style=&quot;background-color: transparent; color: light-dark(rgb(0, 0, 0), rgb(255, 255, 255));&quot;&gt;TGNO : String&lt;/span&gt;&lt;span style=&quot;background-color: transparent; color: light-dark(rgb(0, 0, 0), rgb(255, 255, 255));&quot;&gt;)&lt;/span&gt;&lt;/div&gt;&lt;div&gt;+ viewSGPA(&lt;span style=&quot;background-color: transparent; color: light-dark(rgb(0, 0, 0), rgb(255, 255, 255));&quot;&gt;TGNO : String&lt;/span&gt;&lt;span style=&quot;background-color: transparent; color: light-dark(rgb(0, 0, 0), rgb(255, 255, 255));&quot;&gt;)&lt;/span&gt;&lt;/div&gt;" style="text;strokeColor=none;fillColor=none;align=left;verticalAlign=top;spacingLeft=4;spacingRight=4;overflow=hidden;rotatable=0;points=[[0,0.5],[1,0.5]];portConstraint=eastwest;whiteSpace=wrap;html=1;" parent="-zvJJI0u3e5CJdbClVFZ-30" vertex="1">
          <mxGeometry y="108" width="360" height="110" as="geometry" />
        </mxCell>
        <mxCell id="-zvJJI0u3e5CJdbClVFZ-34" value="Course" style="swimlane;fontStyle=1;align=center;verticalAlign=top;childLayout=stackLayout;horizontal=1;startSize=26;horizontalStack=0;resizeParent=1;resizeParentMax=0;resizeLast=0;collapsible=1;marginBottom=0;whiteSpace=wrap;html=1;" parent="1" vertex="1">
          <mxGeometry x="70" y="620" width="140" height="218" as="geometry" />
        </mxCell>
        <mxCell id="-zvJJI0u3e5CJdbClVFZ-35" value="+c_code : String&lt;div&gt;+status : String&lt;/div&gt;" style="text;strokeColor=none;fillColor=none;align=left;verticalAlign=top;spacingLeft=4;spacingRight=4;overflow=hidden;rotatable=0;points=[[0,0.5],[1,0.5]];portConstraint=eastwest;whiteSpace=wrap;html=1;" parent="-zvJJI0u3e5CJdbClVFZ-34" vertex="1">
          <mxGeometry y="26" width="140" height="74" as="geometry" />
        </mxCell>
        <mxCell id="-zvJJI0u3e5CJdbClVFZ-36" value="" style="line;strokeWidth=1;fillColor=none;align=left;verticalAlign=middle;spacingTop=-1;spacingLeft=3;spacingRight=3;rotatable=0;labelPosition=right;points=[];portConstraint=eastwest;strokeColor=inherit;" parent="-zvJJI0u3e5CJdbClVFZ-34" vertex="1">
          <mxGeometry y="100" width="140" height="8" as="geometry" />
        </mxCell>
        <mxCell id="-zvJJI0u3e5CJdbClVFZ-37" value="+ createCourses : void&lt;br&gt;+ viewCourses() : void&lt;div&gt;+ editCourse : void&lt;/div&gt;" style="text;strokeColor=none;fillColor=none;align=left;verticalAlign=top;spacingLeft=4;spacingRight=4;overflow=hidden;rotatable=0;points=[[0,0.5],[1,0.5]];portConstraint=eastwest;whiteSpace=wrap;html=1;" parent="-zvJJI0u3e5CJdbClVFZ-34" vertex="1">
          <mxGeometry y="108" width="140" height="110" as="geometry" />
        </mxCell>
        <mxCell id="qeKuZ22pvRdagsNJLJg8-2" value="Medical" style="swimlane;fontStyle=1;align=center;verticalAlign=top;childLayout=stackLayout;horizontal=1;startSize=26;horizontalStack=0;resizeParent=1;resizeParentMax=0;resizeLast=0;collapsible=1;marginBottom=0;whiteSpace=wrap;html=1;" vertex="1" parent="1">
          <mxGeometry x="1280" y="590" width="330" height="250" as="geometry" />
        </mxCell>
        <mxCell id="qeKuZ22pvRdagsNJLJg8-3" value="+ TGNO : String&lt;div&gt;+ c_code : String&lt;/div&gt;&lt;div&gt;- weekNo : int&lt;br&gt;- Med_Id&lt;/div&gt;" style="text;strokeColor=none;fillColor=none;align=left;verticalAlign=top;spacingLeft=4;spacingRight=4;overflow=hidden;rotatable=0;points=[[0,0.5],[1,0.5]];portConstraint=eastwest;whiteSpace=wrap;html=1;" vertex="1" parent="qeKuZ22pvRdagsNJLJg8-2">
          <mxGeometry y="26" width="330" height="74" as="geometry" />
        </mxCell>
        <mxCell id="qeKuZ22pvRdagsNJLJg8-4" value="" style="line;strokeWidth=1;fillColor=none;align=left;verticalAlign=middle;spacingTop=-1;spacingLeft=3;spacingRight=3;rotatable=0;labelPosition=right;points=[];portConstraint=eastwest;strokeColor=inherit;" vertex="1" parent="qeKuZ22pvRdagsNJLJg8-2">
          <mxGeometry y="100" width="330" height="8" as="geometry" />
        </mxCell>
        <mxCell id="qeKuZ22pvRdagsNJLJg8-5" value="+ addMedical(TGNO :String, c_code : String, weekNO : int)&lt;div&gt;+ editMedical(TGNO :String, c_code : String, weekNO : int)&lt;br&gt;+ viewMedical(c_code : String)&lt;br&gt;+ deleteMedical(Med_Id : String)&lt;/div&gt;" style="text;strokeColor=none;fillColor=none;align=left;verticalAlign=top;spacingLeft=4;spacingRight=4;overflow=hidden;rotatable=0;points=[[0,0.5],[1,0.5]];portConstraint=eastwest;whiteSpace=wrap;html=1;" vertex="1" parent="qeKuZ22pvRdagsNJLJg8-2">
          <mxGeometry y="108" width="330" height="142" as="geometry" />
        </mxCell>
        <mxCell id="qeKuZ22pvRdagsNJLJg8-6" value="EndExamMarks" style="swimlane;fontStyle=1;align=center;verticalAlign=top;childLayout=stackLayout;horizontal=1;startSize=26;horizontalStack=0;resizeParent=1;resizeParentMax=0;resizeLast=0;collapsible=1;marginBottom=0;whiteSpace=wrap;html=1;" vertex="1" parent="1">
          <mxGeometry x="850" y="996" width="340" height="218" as="geometry" />
        </mxCell>
        <mxCell id="qeKuZ22pvRdagsNJLJg8-7" value="+ TGNO : String&lt;div&gt;+ c_code : String&lt;/div&gt;" style="text;strokeColor=none;fillColor=none;align=left;verticalAlign=top;spacingLeft=4;spacingRight=4;overflow=hidden;rotatable=0;points=[[0,0.5],[1,0.5]];portConstraint=eastwest;whiteSpace=wrap;html=1;" vertex="1" parent="qeKuZ22pvRdagsNJLJg8-6">
          <mxGeometry y="26" width="340" height="74" as="geometry" />
        </mxCell>
        <mxCell id="qeKuZ22pvRdagsNJLJg8-8" value="" style="line;strokeWidth=1;fillColor=none;align=left;verticalAlign=middle;spacingTop=-1;spacingLeft=3;spacingRight=3;rotatable=0;labelPosition=right;points=[];portConstraint=eastwest;strokeColor=inherit;" vertex="1" parent="qeKuZ22pvRdagsNJLJg8-6">
          <mxGeometry y="100" width="340" height="8" as="geometry" />
        </mxCell>
        <mxCell id="qeKuZ22pvRdagsNJLJg8-9" value="&lt;div&gt;+ addEndExamMarks(TGNO : String, c_code : String)&lt;/div&gt;&lt;div&gt;&lt;div&gt;+ viewCourseEndExamEligibility(c_code : String)&lt;/div&gt;&lt;div&gt;+ viewUGEndExamEligibility(TGNO : String, c_code : String)&lt;/div&gt;&lt;/div&gt;" style="text;strokeColor=none;fillColor=none;align=left;verticalAlign=top;spacingLeft=4;spacingRight=4;overflow=hidden;rotatable=0;points=[[0,0.5],[1,0.5]];portConstraint=eastwest;whiteSpace=wrap;html=1;" vertex="1" parent="qeKuZ22pvRdagsNJLJg8-6">
          <mxGeometry y="108" width="340" height="110" as="geometry" />
        </mxCell>
        <mxCell id="qeKuZ22pvRdagsNJLJg8-10" value="CAExamMarks" style="swimlane;fontStyle=1;align=center;verticalAlign=top;childLayout=stackLayout;horizontal=1;startSize=26;horizontalStack=0;resizeParent=1;resizeParentMax=0;resizeLast=0;collapsible=1;marginBottom=0;whiteSpace=wrap;html=1;" vertex="1" parent="1">
          <mxGeometry x="410" y="960" width="360" height="278" as="geometry" />
        </mxCell>
        <mxCell id="qeKuZ22pvRdagsNJLJg8-11" value="+ TGNO : String&lt;div&gt;+ c_code : String&lt;/div&gt;&lt;div&gt;- Quiz_01 : float&lt;/div&gt;&lt;div&gt;- Quiz_02 : float&lt;/div&gt;&lt;div&gt;- Quiz_03 : float&lt;/div&gt;&lt;div&gt;- Assessment : float&lt;/div&gt;&lt;div&gt;- mid_marks : float&amp;nbsp;&lt;/div&gt;" style="text;strokeColor=none;fillColor=none;align=left;verticalAlign=top;spacingLeft=4;spacingRight=4;overflow=hidden;rotatable=0;points=[[0,0.5],[1,0.5]];portConstraint=eastwest;whiteSpace=wrap;html=1;" vertex="1" parent="qeKuZ22pvRdagsNJLJg8-10">
          <mxGeometry y="26" width="360" height="134" as="geometry" />
        </mxCell>
        <mxCell id="qeKuZ22pvRdagsNJLJg8-12" value="" style="line;strokeWidth=1;fillColor=none;align=left;verticalAlign=middle;spacingTop=-1;spacingLeft=3;spacingRight=3;rotatable=0;labelPosition=right;points=[];portConstraint=eastwest;strokeColor=inherit;" vertex="1" parent="qeKuZ22pvRdagsNJLJg8-10">
          <mxGeometry y="160" width="360" height="8" as="geometry" />
        </mxCell>
        <mxCell id="qeKuZ22pvRdagsNJLJg8-13" value="+ addCAMarks(TGNO : String, c_code : String, Quiz_01 :&amp;nbsp; float&amp;nbsp;Quiz_02 : float&amp;nbsp;Quiz_03 : float,Assessment : float, mid_marks : float)&lt;div&gt;+ viewCourseCAEligibility(c_code : String)&lt;/div&gt;&lt;div&gt;+ viewUGCAMarkEligibility(TGNO : String, c_code : String)&lt;/div&gt;" style="text;strokeColor=none;fillColor=none;align=left;verticalAlign=top;spacingLeft=4;spacingRight=4;overflow=hidden;rotatable=0;points=[[0,0.5],[1,0.5]];portConstraint=eastwest;whiteSpace=wrap;html=1;" vertex="1" parent="qeKuZ22pvRdagsNJLJg8-10">
          <mxGeometry y="168" width="360" height="110" as="geometry" />
        </mxCell>
        <mxCell id="qeKuZ22pvRdagsNJLJg8-18" value="Notice" style="swimlane;fontStyle=1;align=center;verticalAlign=top;childLayout=stackLayout;horizontal=1;startSize=26;horizontalStack=0;resizeParent=1;resizeParentMax=0;resizeLast=0;collapsible=1;marginBottom=0;whiteSpace=wrap;html=1;" vertex="1" parent="1">
          <mxGeometry x="280" y="-10" width="150" height="190" as="geometry" />
        </mxCell>
        <mxCell id="qeKuZ22pvRdagsNJLJg8-19" value="+ NoticeId : String&lt;div&gt;+ Title : String&lt;/div&gt;&lt;div&gt;+ Date_Time : DateTime&amp;nbsp;&lt;/div&gt;&lt;div&gt;+ FilePath : String&lt;/div&gt;&lt;div&gt;+ Description : String&lt;/div&gt;" style="text;strokeColor=none;fillColor=none;align=left;verticalAlign=top;spacingLeft=4;spacingRight=4;overflow=hidden;rotatable=0;points=[[0,0.5],[1,0.5]];portConstraint=eastwest;whiteSpace=wrap;html=1;" vertex="1" parent="qeKuZ22pvRdagsNJLJg8-18">
          <mxGeometry y="26" width="150" height="104" as="geometry" />
        </mxCell>
        <mxCell id="qeKuZ22pvRdagsNJLJg8-20" value="" style="line;strokeWidth=1;fillColor=none;align=left;verticalAlign=middle;spacingTop=-1;spacingLeft=3;spacingRight=3;rotatable=0;labelPosition=right;points=[];portConstraint=eastwest;strokeColor=inherit;" vertex="1" parent="qeKuZ22pvRdagsNJLJg8-18">
          <mxGeometry y="130" width="150" height="8" as="geometry" />
        </mxCell>
        <mxCell id="qeKuZ22pvRdagsNJLJg8-21" value="+ addNotice() : void&lt;div&gt;+ deleteNotice() : void&lt;/div&gt;" style="text;strokeColor=none;fillColor=none;align=left;verticalAlign=top;spacingLeft=4;spacingRight=4;overflow=hidden;rotatable=0;points=[[0,0.5],[1,0.5]];portConstraint=eastwest;whiteSpace=wrap;html=1;" vertex="1" parent="qeKuZ22pvRdagsNJLJg8-18">
          <mxGeometry y="138" width="150" height="52" as="geometry" />
        </mxCell>
        <mxCell id="qeKuZ22pvRdagsNJLJg8-22" style="edgeStyle=orthogonalEdgeStyle;rounded=0;orthogonalLoop=1;jettySize=auto;html=1;entryX=0.466;entryY=1.007;entryDx=0;entryDy=0;entryPerimeter=0;" edge="1" parent="1" source="-zvJJI0u3e5CJdbClVFZ-13" target="-zvJJI0u3e5CJdbClVFZ-4">
          <mxGeometry relative="1" as="geometry" />
        </mxCell>
        <mxCell id="qeKuZ22pvRdagsNJLJg8-24" style="edgeStyle=orthogonalEdgeStyle;rounded=0;orthogonalLoop=1;jettySize=auto;html=1;entryX=0.466;entryY=1.007;entryDx=0;entryDy=0;entryPerimeter=0;exitX=0.5;exitY=0;exitDx=0;exitDy=0;" edge="1" parent="1" source="-zvJJI0u3e5CJdbClVFZ-5">
          <mxGeometry relative="1" as="geometry">
            <mxPoint x="350" y="279.5" as="sourcePoint" />
            <mxPoint x="725" y="208.5" as="targetPoint" />
          </mxGeometry>
        </mxCell>
        <mxCell id="qeKuZ22pvRdagsNJLJg8-25" style="edgeStyle=orthogonalEdgeStyle;rounded=0;orthogonalLoop=1;jettySize=auto;html=1;entryX=0.466;entryY=1.007;entryDx=0;entryDy=0;entryPerimeter=0;exitX=0.5;exitY=0;exitDx=0;exitDy=0;" edge="1" parent="1" source="-zvJJI0u3e5CJdbClVFZ-18">
          <mxGeometry relative="1" as="geometry">
            <mxPoint x="350" y="279.5" as="sourcePoint" />
            <mxPoint x="725" y="208.5" as="targetPoint" />
          </mxGeometry>
        </mxCell>
        <mxCell id="qeKuZ22pvRdagsNJLJg8-27" style="edgeStyle=orthogonalEdgeStyle;rounded=0;orthogonalLoop=1;jettySize=auto;html=1;entryX=0.466;entryY=1.007;entryDx=0;entryDy=0;entryPerimeter=0;exitX=0.5;exitY=0;exitDx=0;exitDy=0;" edge="1" parent="1" source="-zvJJI0u3e5CJdbClVFZ-22">
          <mxGeometry relative="1" as="geometry">
            <mxPoint x="890" y="279.5" as="sourcePoint" />
            <mxPoint x="725" y="208" as="targetPoint" />
          </mxGeometry>
        </mxCell>
        <mxCell id="qeKuZ22pvRdagsNJLJg8-37" value="" style="endArrow=diamondThin;endFill=1;endSize=24;html=1;rounded=0;entryX=0.5;entryY=1;entryDx=0;entryDy=0;exitX=0.5;exitY=0;exitDx=0;exitDy=0;" edge="1" parent="1" source="-zvJJI0u3e5CJdbClVFZ-26" target="-zvJJI0u3e5CJdbClVFZ-18">
          <mxGeometry width="160" relative="1" as="geometry">
            <mxPoint x="880" y="470" as="sourcePoint" />
            <mxPoint x="1040" y="470" as="targetPoint" />
            <Array as="points">
              <mxPoint x="1030" y="520" />
              <mxPoint x="890" y="520" />
            </Array>
          </mxGeometry>
        </mxCell>
        <mxCell id="qeKuZ22pvRdagsNJLJg8-38" value="" style="endArrow=diamondThin;endFill=1;endSize=24;html=1;rounded=0;entryX=0.5;entryY=1;entryDx=0;entryDy=0;exitX=0.5;exitY=0;exitDx=0;exitDy=0;" edge="1" parent="1" source="-zvJJI0u3e5CJdbClVFZ-30">
          <mxGeometry width="160" relative="1" as="geometry">
            <mxPoint x="1030" y="590" as="sourcePoint" />
            <mxPoint x="890" y="388" as="targetPoint" />
            <Array as="points">
              <mxPoint x="600" y="520" />
              <mxPoint x="890" y="520" />
            </Array>
          </mxGeometry>
        </mxCell>
        <mxCell id="qeKuZ22pvRdagsNJLJg8-39" value="" style="endArrow=diamondThin;endFill=1;endSize=24;html=1;rounded=0;entryX=0.5;entryY=1;entryDx=0;entryDy=0;exitX=0.5;exitY=0;exitDx=0;exitDy=0;" edge="1" parent="1" source="qeKuZ22pvRdagsNJLJg8-2">
          <mxGeometry width="160" relative="1" as="geometry">
            <mxPoint x="1030" y="590" as="sourcePoint" />
            <mxPoint x="890" y="388" as="targetPoint" />
            <Array as="points">
              <mxPoint x="1445" y="520" />
              <mxPoint x="890" y="520" />
            </Array>
          </mxGeometry>
        </mxCell>
        <mxCell id="qeKuZ22pvRdagsNJLJg8-41" value="" style="endArrow=diamondThin;endFill=0;endSize=24;html=1;rounded=0;entryX=0.5;entryY=1;entryDx=0;entryDy=0;exitX=0.653;exitY=-0.001;exitDx=0;exitDy=0;exitPerimeter=0;jumpStyle=arc;" edge="1" parent="1" source="-zvJJI0u3e5CJdbClVFZ-26" target="-zvJJI0u3e5CJdbClVFZ-22">
          <mxGeometry width="160" relative="1" as="geometry">
            <mxPoint x="1110" y="470" as="sourcePoint" />
            <mxPoint x="1270" y="470" as="targetPoint" />
          </mxGeometry>
        </mxCell>
        <mxCell id="qeKuZ22pvRdagsNJLJg8-42" value="" style="endArrow=diamondThin;endFill=1;endSize=24;html=1;rounded=0;entryX=0.281;entryY=1.005;entryDx=0;entryDy=0;entryPerimeter=0;exitX=0.5;exitY=0;exitDx=0;exitDy=0;" edge="1" parent="1" source="-zvJJI0u3e5CJdbClVFZ-34" target="-zvJJI0u3e5CJdbClVFZ-8">
          <mxGeometry width="160" relative="1" as="geometry">
            <mxPoint x="560" y="580" as="sourcePoint" />
            <mxPoint x="564" y="510" as="targetPoint" />
            <Array as="points">
              <mxPoint x="140" y="560" />
              <mxPoint x="561" y="560" />
            </Array>
          </mxGeometry>
        </mxCell>
        <mxCell id="qeKuZ22pvRdagsNJLJg8-43" value="" style="endArrow=diamondThin;endFill=1;endSize=24;html=1;rounded=0;entryX=1;entryY=0.5;entryDx=0;entryDy=0;exitX=0;exitY=0.5;exitDx=0;exitDy=0;" edge="1" parent="1" source="-zvJJI0u3e5CJdbClVFZ-31" target="-zvJJI0u3e5CJdbClVFZ-35">
          <mxGeometry width="160" relative="1" as="geometry">
            <mxPoint x="280" y="759.5" as="sourcePoint" />
            <mxPoint x="280" y="698.5" as="targetPoint" />
            <Array as="points">
              <mxPoint x="330" y="683" />
            </Array>
          </mxGeometry>
        </mxCell>
        <mxCell id="qeKuZ22pvRdagsNJLJg8-47" value="" style="endArrow=none;html=1;rounded=0;entryX=0.469;entryY=0.997;entryDx=0;entryDy=0;entryPerimeter=0;exitX=0.5;exitY=0;exitDx=0;exitDy=0;" edge="1" parent="1" source="qeKuZ22pvRdagsNJLJg8-10" target="-zvJJI0u3e5CJdbClVFZ-33">
          <mxGeometry width="50" height="50" relative="1" as="geometry">
            <mxPoint x="720" y="910" as="sourcePoint" />
            <mxPoint x="600" y="850" as="targetPoint" />
          </mxGeometry>
        </mxCell>
        <mxCell id="qeKuZ22pvRdagsNJLJg8-48" value="" style="endArrow=none;html=1;rounded=0;entryX=0.605;entryY=1.005;entryDx=0;entryDy=0;entryPerimeter=0;exitX=0.5;exitY=0;exitDx=0;exitDy=0;jumpStyle=none;" edge="1" parent="1" target="-zvJJI0u3e5CJdbClVFZ-33">
          <mxGeometry width="50" height="50" relative="1" as="geometry">
            <mxPoint x="948.95" y="996" as="sourcePoint" />
            <mxPoint x="949.95" y="874" as="targetPoint" />
            <Array as="points">
              <mxPoint x="949" y="920" />
              <mxPoint x="640" y="920" />
            </Array>
          </mxGeometry>
        </mxCell>
        <mxCell id="qeKuZ22pvRdagsNJLJg8-49" value="" style="endArrow=diamondThin;endFill=1;endSize=24;html=1;rounded=0;entryX=0.467;entryY=1.007;entryDx=0;entryDy=0;entryPerimeter=0;exitX=0.5;exitY=0;exitDx=0;exitDy=0;" edge="1" parent="1" source="qeKuZ22pvRdagsNJLJg8-6" target="-zvJJI0u3e5CJdbClVFZ-29">
          <mxGeometry width="160" relative="1" as="geometry">
            <mxPoint x="1020" y="990" as="sourcePoint" />
            <mxPoint x="1230" y="910" as="targetPoint" />
          </mxGeometry>
        </mxCell>
        <mxCell id="qeKuZ22pvRdagsNJLJg8-50" value="" style="endArrow=none;html=1;rounded=0;entryX=0.16;entryY=0.995;entryDx=0;entryDy=0;entryPerimeter=0;exitX=0.25;exitY=0;exitDx=0;exitDy=0;" edge="1" parent="1" source="-zvJJI0u3e5CJdbClVFZ-13" target="qeKuZ22pvRdagsNJLJg8-21">
          <mxGeometry width="50" height="50" relative="1" as="geometry">
            <mxPoint x="130" y="270" as="sourcePoint" />
            <mxPoint x="180" y="220" as="targetPoint" />
          </mxGeometry>
        </mxCell>
        <mxCell id="qeKuZ22pvRdagsNJLJg8-51" value="1" style="text;html=1;align=center;verticalAlign=middle;resizable=0;points=[];autosize=1;strokeColor=none;fillColor=none;" vertex="1" parent="1">
          <mxGeometry x="280" y="253" width="30" height="30" as="geometry" />
        </mxCell>
        <mxCell id="qeKuZ22pvRdagsNJLJg8-52" value="1..*" style="text;html=1;align=center;verticalAlign=middle;resizable=0;points=[];autosize=1;strokeColor=none;fillColor=none;" vertex="1" parent="1">
          <mxGeometry x="270" y="179" width="40" height="30" as="geometry" />
        </mxCell>
        <mxCell id="qeKuZ22pvRdagsNJLJg8-53" value="1..*" style="text;html=1;align=center;verticalAlign=middle;resizable=0;points=[];autosize=1;strokeColor=none;fillColor=none;" vertex="1" parent="1">
          <mxGeometry x="100" y="588" width="40" height="30" as="geometry" />
        </mxCell>
        <mxCell id="qeKuZ22pvRdagsNJLJg8-54" value="1..*" style="text;html=1;align=center;verticalAlign=middle;resizable=0;points=[];autosize=1;strokeColor=none;fillColor=none;" vertex="1" parent="1">
          <mxGeometry x="516" y="501" width="40" height="30" as="geometry" />
        </mxCell>
        <mxCell id="qeKuZ22pvRdagsNJLJg8-55" value="" style="endArrow=diamondThin;endFill=1;endSize=24;html=1;rounded=0;entryX=0.48;entryY=1.022;entryDx=0;entryDy=0;entryPerimeter=0;exitX=0.523;exitY=0.997;exitDx=0;exitDy=0;exitPerimeter=0;jumpStyle=arc;" edge="1" parent="1" source="qeKuZ22pvRdagsNJLJg8-5" target="-zvJJI0u3e5CJdbClVFZ-37">
          <mxGeometry width="160" relative="1" as="geometry">
            <mxPoint x="1400" y="890" as="sourcePoint" />
            <mxPoint x="160" y="890" as="targetPoint" />
            <Array as="points">
              <mxPoint x="1460" y="1280" />
              <mxPoint x="137" y="1280" />
            </Array>
          </mxGeometry>
        </mxCell>
        <mxCell id="qeKuZ22pvRdagsNJLJg8-56" value="1..*" style="text;html=1;align=center;verticalAlign=middle;resizable=0;points=[];autosize=1;strokeColor=none;fillColor=none;" vertex="1" parent="1">
          <mxGeometry x="140" y="850" width="40" height="30" as="geometry" />
        </mxCell>
        <mxCell id="qeKuZ22pvRdagsNJLJg8-57" value="0..*" style="text;html=1;align=center;verticalAlign=middle;resizable=0;points=[];autosize=1;strokeColor=none;fillColor=none;" vertex="1" parent="1">
          <mxGeometry x="1400" y="850" width="40" height="30" as="geometry" />
        </mxCell>
        <mxCell id="qeKuZ22pvRdagsNJLJg8-58" value="1..*" style="text;html=1;align=center;verticalAlign=middle;resizable=0;points=[];autosize=1;strokeColor=none;fillColor=none;" vertex="1" parent="1">
          <mxGeometry x="210" y="648" width="40" height="30" as="geometry" />
        </mxCell>
        <mxCell id="qeKuZ22pvRdagsNJLJg8-59" value="0..*" style="text;html=1;align=center;verticalAlign=middle;resizable=0;points=[];autosize=1;strokeColor=none;fillColor=none;" vertex="1" parent="1">
          <mxGeometry x="383" y="655" width="40" height="30" as="geometry" />
        </mxCell>
        <mxCell id="qeKuZ22pvRdagsNJLJg8-60" value="1" style="text;html=1;align=center;verticalAlign=middle;resizable=0;points=[];autosize=1;strokeColor=none;fillColor=none;" vertex="1" parent="1">
          <mxGeometry x="559" y="930" width="30" height="30" as="geometry" />
        </mxCell>
        <mxCell id="qeKuZ22pvRdagsNJLJg8-61" value="1" style="text;html=1;align=center;verticalAlign=middle;resizable=0;points=[];autosize=1;strokeColor=none;fillColor=none;" vertex="1" parent="1">
          <mxGeometry x="923" y="968" width="30" height="30" as="geometry" />
        </mxCell>
        <mxCell id="qeKuZ22pvRdagsNJLJg8-62" value="1..*" style="text;html=1;align=center;verticalAlign=middle;resizable=0;points=[];autosize=1;strokeColor=none;fillColor=none;" vertex="1" parent="1">
          <mxGeometry x="554" y="838" width="40" height="30" as="geometry" />
        </mxCell>
        <mxCell id="qeKuZ22pvRdagsNJLJg8-63" value="1..*" style="text;html=1;align=center;verticalAlign=middle;resizable=0;points=[];autosize=1;strokeColor=none;fillColor=none;" vertex="1" parent="1">
          <mxGeometry x="634" y="838" width="40" height="30" as="geometry" />
        </mxCell>
        <mxCell id="qeKuZ22pvRdagsNJLJg8-64" value="1..*" style="text;html=1;align=center;verticalAlign=middle;resizable=0;points=[];autosize=1;strokeColor=none;fillColor=none;" vertex="1" parent="1">
          <mxGeometry x="594" y="590" width="40" height="30" as="geometry" />
        </mxCell>
        <mxCell id="qeKuZ22pvRdagsNJLJg8-65" value="1..*" style="text;html=1;align=center;verticalAlign=middle;resizable=0;points=[];autosize=1;strokeColor=none;fillColor=none;" vertex="1" parent="1">
          <mxGeometry x="990" y="558" width="40" height="30" as="geometry" />
        </mxCell>
        <mxCell id="qeKuZ22pvRdagsNJLJg8-66" value="0..*" style="text;html=1;align=center;verticalAlign=middle;resizable=0;points=[];autosize=1;strokeColor=none;fillColor=none;" vertex="1" parent="1">
          <mxGeometry x="1402" y="558" width="40" height="30" as="geometry" />
        </mxCell>
        <mxCell id="qeKuZ22pvRdagsNJLJg8-67" value="1..*" style="text;html=1;align=center;verticalAlign=middle;resizable=0;points=[];autosize=1;strokeColor=none;fillColor=none;" vertex="1" parent="1">
          <mxGeometry x="1086" y="562" width="40" height="30" as="geometry" />
        </mxCell>
        <mxCell id="qeKuZ22pvRdagsNJLJg8-68" value="1" style="text;html=1;align=center;verticalAlign=middle;resizable=0;points=[];autosize=1;strokeColor=none;fillColor=none;" vertex="1" parent="1">
          <mxGeometry x="1093" y="388" width="30" height="30" as="geometry" />
        </mxCell>
      </root>
    </mxGraphModel>
  </diagram>
</mxfile>
